<svg xmlns="http://www.w3.org/2000/svg" width="50" height="50" viewBox="0 0 50 50"><defs><style>.a{fill:#c9c9c9}</style></defs><path class="a" d="M9.445 45.712l-2.314 2.314a1.172 1.172 0 00-.048 1.655 1.172 1.172 0 001.655-.048l2.315-2.315a1.172 1.172 0 00.048-1.655 1.172 1.172 0 00-1.656.049zm23.863 0l-2.315 2.314a1.172 1.172 0 00-.048 1.655 1.172 1.172 0 001.655-.048l2.314-2.315a1.172 1.172 0 00.048-1.655 1.172 1.172 0 00-1.654.049zm-7.954 0l-2.314 2.314a1.172 1.172 0 00-.048 1.655 1.172 1.172 0 001.655-.048l2.314-2.315a1.172 1.172 0 00.048-1.655 1.172 1.172 0 00-1.655.049zm-7.954 0l-2.314 2.314a1.172 1.172 0 00-.048 1.655 1.172 1.172 0 001.655-.048l2.314-2.315a1.172 1.172 0 00.048-1.655 1.172 1.172 0 00-1.655.049zm25.518-.048a1.172 1.172 0 00-1.655.048l-2.314 2.314a1.172 1.172 0 00-.048 1.655 1.172 1.172 0 001.655-.048l2.315-2.315a1.172 1.172 0 00.047-1.654z"/><path d="M30.113 31.83a11.958 11.958 0 01-11.944-11.944A11.957 11.957 0 0130.113 7.942a11.958 11.958 0 0111.944 11.944A11.958 11.958 0 0130.113 31.83z" fill="#ffe269"/><path d="M30.113 8.652a11.246 11.246 0 0111.234 11.234A11.247 11.247 0 0130.113 31.12a11.247 11.247 0 01-11.234-11.234A11.247 11.247 0 0130.113 8.652m0-1.42a12.654 12.654 0 00-12.654 12.654 12.654 12.654 0 0012.654 12.655 12.654 12.654 0 0012.655-12.655A12.654 12.654 0 0030.113 7.232zm1.355-2.958a1.266 1.266 0 01-1.356 1.15 1.266 1.266 0 01-1.356-1.15V1.15A1.266 1.266 0 0130.112 0a1.265 1.265 0 011.356 1.15zm0 34.349a1.266 1.266 0 01-1.356 1.15 1.266 1.266 0 01-1.356-1.15v-3.124a1.266 1.266 0 011.356-1.15 1.266 1.266 0 011.356 1.15zM42.111 9.805a1.267 1.267 0 01-1.772-.145 1.267 1.267 0 01-.145-1.772l2.209-2.209a1.265 1.265 0 011.772.145 1.265 1.265 0 01.145 1.772zM17.824 34.094a1.265 1.265 0 01-1.772-.145 1.266 1.266 0 01-.146-1.772l2.209-2.209a1.267 1.267 0 011.772.145 1.266 1.266 0 01.146 1.772zm27.902-12.852a1.266 1.266 0 01-1.15-1.356 1.266 1.266 0 011.15-1.355h3.124A1.266 1.266 0 0150 19.887a1.266 1.266 0 01-1.15 1.356zm-34.349 0a1.266 1.266 0 01-1.15-1.356 1.266 1.266 0 011.15-1.356h3.124a1.266 1.266 0 011.15 1.355 1.266 1.266 0 01-1.15 1.356zm28.818 10.642a1.267 1.267 0 01.145-1.772 1.267 1.267 0 011.772-.145l2.209 2.209a1.266 1.266 0 01-.146 1.772 1.266 1.266 0 01-1.772.145zM15.906 7.597a1.266 1.266 0 01.146-1.772 1.266 1.266 0 011.772-.145l2.209 2.209a1.267 1.267 0 01-.146 1.772 1.267 1.267 0 01-1.772.145z" fill="#fecb2f"/><g><path d="M43.466 42.472c-.106 0-.21 0-.314-.009H32.174c-.118 0-.236.009-.355.009H10.228a9.528 9.528 0 01-9.517-9.517q0-.244.012-.486l.017-.229c.006-.084.011-.167.019-.25 0-.039.026-.2.026-.2l.009-.072c.008-.066.016-.133.026-.2l.022-.128.03-.17c.01-.055.019-.111.03-.166s.022-.1.033-.147l.034-.149.037-.16c.013-.053.027-.1.042-.152l.041-.147c.014-.049.027-.1.042-.147l.056-.172.045-.134.045-.132c.023-.063.047-.124.072-.186l.095-.241c.029-.07.06-.138.091-.207l.095-.21c.036-.076.074-.15.112-.223l.093-.182c.045-.084.093-.167.141-.251l.082-.142c.052-.087.105-.17.159-.253l.083-.129c.057-.086.117-.17.177-.255l.081-.114c.063-.086.129-.17.2-.254l.078-.1c.07-.087.142-.171.215-.255l.074-.086c.077-.086.155-.17.235-.253l.07-.074c.083-.085.169-.168.255-.25l.064-.062c.091-.084.182-.166.275-.246l.059-.051c.1-.081.195-.161.294-.239l.052-.041c.1-.08.209-.157.315-.232l.045-.032a9.27 9.27 0 01.335-.223l.038-.024q.174-.11.353-.212l.031-.018.37-.2.026-.013q.191-.1.387-.185l.031-.014a8.964 8.964 0 01.824-.322c.141-.048.294-.1.44-.137l.021-.006c.141-.039.268-.072.4-.1l.049-.012c.136-.032.287-.062.44-.09a9.6 9.6 0 011.411-.147l.55-.017.122-.536a9.458 9.458 0 01.822-2.253 9.79 9.79 0 01.187-.345 9.631 9.631 0 011.144-1.6 6.7 6.7 0 01.24-.26l.062-.065q.107-.11.217-.216l.083-.08c.071-.067.144-.134.218-.2l.091-.079c.075-.064.15-.129.226-.191l.081-.064c.247-.2.509-.384.778-.556l.142-.091c.06-.037.122-.073.185-.11s.131-.077.189-.109l.2-.106c.062-.033.125-.065.188-.1s.129-.064.193-.094.137-.063.206-.093l.186-.081c.078-.032.157-.063.237-.093l.165-.064q.2-.072.4-.136l.111-.032c.1-.031.207-.061.313-.089l.163-.04c.09-.022.179-.043.27-.062l.177-.035q.133-.026.266-.047l.18-.028c.091-.013.183-.024.275-.035l.174-.019c.1-.01.2-.016.306-.023l.148-.01c.153-.007.306-.012.46-.012s.308 0 .462.012l.15.01c.1.007.205.013.307.023l.174.019c.093.011.185.022.277.035l.181.028.267.048.178.036c.088.019.178.04.266.062l.165.041c.1.026.194.054.289.082l.137.04a9.1 9.1 0 01.413.14l.07.028c.113.042.225.086.335.132l.151.066c.082.036.165.073.247.112l.139.068c.1.05.175.088.249.127l.168.091c.07.039.14.079.21.121l.166.1c.068.043.137.087.2.132 0 0 .118.077.157.1.069.047.136.1.2.145l.146.105c.111.084.219.168.325.256l.158.135c.056.047.112.1.166.144l.171.16c.047.044.094.088.139.134l.151.153c.051.053.1.1.146.153s.1.11.149.164.09.1.135.156.1.113.142.171.072.091.107.136l.041.053.116.151a9.476 9.476 0 01.588.902l.089.155c.037.067.073.137.109.206l.089.173c.037.075.072.149.106.224l.075.166.1.229a14.85 14.85 0 01.155.406l.066.2c.024.072.048.144.07.216l.042.148a9.51 9.51 0 01.358 2.193l.066 1.469 1.11-.964a6.67 6.67 0 014.375-1.637 6.684 6.684 0 016.676 6.677v.092l-.01.857.844-.148a5.879 5.879 0 011.016-.09 5.818 5.818 0 013.855 1.46c.09.079.178.161.263.245l.035.037a5.836 5.836 0 011.641 3.484l.009.117c.014.177.021.334.021.479a5.843 5.843 0 01-5.386 5.806l-.145.011a2.084 2.084 0 01-.301.018z" fill="#f2f2f2"/><path class="a" d="M19.886 16.193c.133 0 .273 0 .426.011h.067l.075.005c.095.006.189.012.284.022l.12.013h.041c.086.01.171.02.257.033l.164.026c.083.014.167.028.247.044l.165.033c.083.018.166.038.248.057l.054.013.1.025c.089.024.177.049.269.077l.066.019.058.017c.134.042.262.086.379.128l.068.026c.1.039.207.079.312.123l.072.032.063.028.231.1.126.062.026.013.206.105.153.084.2.112.155.093c.064.04.127.081.191.123l.039.026.106.07c.064.044.126.089.193.138l.067.048.064.047q.156.117.3.239l.057.049.061.053.026.023.152.131.1.089.041.039.023.021c.042.041.086.081.127.122a9.78 9.78 0 01.411.433c.042.047.086.1.126.146s.089.1.134.161l.1.122.018.024.023.029c.036.046.071.092.1.136s.051.07.076.106l.031.043c.156.221.3.452.44.687l.033.057.048.084c.035.063.068.127.1.191l.007.013.01.02.066.128c.034.068.066.138.1.205l.071.156c.031.071.061.141.089.211.021.052.042.1.063.159.028.073.056.146.081.218l.035.1.016.048.011.031c.022.066.044.131.064.2l.019.066.02.07a8.809 8.809 0 01.331 2.03l.131 2.937 2.22-1.929a5.961 5.961 0 013.909-1.462 5.971 5.971 0 015.966 5.957v.092l-.021 1.713 1.688-.3a5.165 5.165 0 01.893-.08 5.1 5.1 0 013.384 1.281c.091.08.163.147.225.209l.039.041a5.117 5.117 0 011.44 3.055v.032l.006.074c.013.159.019.3.019.423a5.13 5.13 0 01-4.729 5.1l-.1.008h-.008c-.092 0-.184.008-.277.008s-.185 0-.276-.008H32.152c-.108 0-.217.009-.326.009H10.235a8.817 8.817 0 01-8.807-8.807c0-.149 0-.3.011-.45v-.06c0-.02.005-.065.008-.1v-.062c.005-.076.01-.151.017-.225 0-.032.008-.063.012-.094l.012-.094.009-.074.022-.176c.005-.036.012-.07.018-.105l.016-.09.015-.089c.008-.048.016-.1.026-.145l.029-.125.018-.08.018-.078c.01-.046.02-.093.032-.139l.036-.131.023-.08.021-.074c.012-.042.023-.085.037-.128l.049-.15.023-.066.025-.074.039-.114c.02-.055.042-.11.064-.165l.022-.057.028-.071.04-.1c.026-.063.055-.126.083-.188l.018-.039.03-.066.043-.094c.032-.068.067-.134.1-.2l.014-.028.031-.062c.014-.027.027-.055.042-.082.042-.078.086-.155.131-.232l.035-.061.042-.073c.047-.078.1-.155.146-.233l.034-.054.042-.065c.053-.079.108-.157.164-.235l.036-.051.039-.054c.058-.08.119-.157.182-.237l.035-.045.037-.046c.065-.08.132-.159.2-.236l.036-.041.034-.039c.071-.08.144-.157.217-.234l.037-.039.028-.03c.077-.079.156-.155.238-.233l.03-.029.028-.026c.083-.077.168-.153.258-.23l.025-.021.026-.022c.089-.076.181-.149.28-.227l.014-.011.029-.023c.1-.074.193-.145.291-.214l.023-.016.019-.013c.1-.071.205-.14.3-.2l.03-.02.013-.008a8.78 8.78 0 01.32-.193l.035-.02c.112-.064.227-.126.34-.183l.026-.013a9.15 9.15 0 01.359-.171l.017-.008c.122-.055.248-.107.374-.157h.013c.124-.049.255-.1.387-.141h.008c.127-.043.256-.083.382-.119l.021-.006c.11-.032.222-.061.341-.089h.013l.072-.018c.134-.031.27-.059.406-.084l.036-.006a8.91 8.91 0 011.271-.13l1.1-.033.243-1.073a8.753 8.753 0 01.759-2.083l.01-.02c.053-.1.106-.2.163-.3l.006-.01v-.007a8.841 8.841 0 011.048-1.46l.009-.01c.068-.077.138-.152.209-.226l.021-.022.037-.039c.065-.068.132-.134.2-.2l.073-.07c.066-.063.133-.124.2-.185l.056-.048.03-.026c.069-.059.138-.119.21-.177l.024-.018.049-.039c.23-.182.472-.355.721-.515l.057-.037.072-.046c.057-.035.115-.068.172-.1l.018-.01.156-.09.185-.1.172-.088.179-.087c.063-.03.127-.058.191-.086l.04-.018.13-.056c.073-.03.147-.058.224-.088l.068-.027.082-.031c.126-.046.251-.088.372-.126l.03-.009.073-.021c.1-.029.191-.057.29-.083l.085-.02.064-.016c.083-.02.166-.04.248-.057l.165-.033a7.44 7.44 0 01.245-.044l.167-.026c.084-.012.169-.022.255-.032h.042l.118-.013c.094-.009.189-.015.287-.022h.136c.154-.007.293-.011.426-.011m0-1.42c-.165 0-.33 0-.493.012l-.16.011c-.11.007-.219.014-.328.025l-.187.021c-.1.011-.2.023-.3.037l-.193.03c-.1.016-.191.033-.286.051l-.19.038c-.1.021-.194.043-.29.067-.058.014-.117.027-.175.043a5.18 5.18 0 00-.337.1l-.119.035q-.218.068-.433.146c-.059.021-.117.045-.175.067l-.257.1c-.067.028-.133.058-.2.087s-.148.066-.222.1-.139.066-.208.1l-.2.1a8.641 8.641 0 00-.212.114l-.182.105a9.59 9.59 0 00-.218.129c-.051.032-.1.065-.152.1a10.2 10.2 0 00-.836.6l-.086.068c-.082.067-.163.136-.243.2l-.1.085c-.079.07-.157.142-.235.215l-.088.084c-.079.076-.157.154-.234.233l-.067.07c-.082.086-.164.174-.243.263l-.014.016a10.236 10.236 0 00-1.216 1.7l-.012.021-.2.361v.01a10.14 10.14 0 00-.883 2.422 10.282 10.282 0 00-1.516.158q-.247.044-.489.1-.241.056-.478.123-.235.066-.464.144h-.009q-.228.077-.45.164l-.015.006q-.219.086-.434.182l-.02.009q-.211.1-.417.2l-.027.014q-.2.1-.4.214l-.035.02q-.192.11-.379.228l-.041.026q-.182.116-.359.24l-.048.034q-.172.121-.339.249l-.056.044q-.161.126-.317.257l-.063.055c-.1.086-.2.174-.3.264l-.07.067a9.87 9.87 0 00-.273.268l-.076.079c-.085.089-.17.18-.252.272l-.08.092c-.078.09-.156.181-.231.274l-.084.107c-.071.09-.142.181-.21.274-.03.04-.058.081-.087.122-.064.09-.129.181-.19.274l-.089.138c-.058.09-.115.18-.17.271-.031.05-.059.1-.088.153-.052.089-.1.179-.152.27l-.086.168a9.505 9.505 0 00-.134.267c-.029.061-.056.123-.083.184-.04.087-.079.174-.117.263-.028.066-.053.133-.079.2-.034.086-.069.172-.1.259-.026.072-.049.145-.074.218s-.058.167-.084.252-.045.157-.067.236-.047.162-.068.244-.039.168-.058.252-.038.158-.054.238-.032.179-.048.269-.029.153-.04.23c-.015.1-.025.194-.037.291-.009.072-.02.144-.027.216-.011.11-.018.222-.025.333 0 .061-.011.12-.014.181q-.013.259-.013.521a10.227 10.227 0 0010.227 10.228h21.591c.129 0 .256 0 .384-.01H43.1q.175.009.352.01.177 0 .352-.01h.138v-.01a6.533 6.533 0 006.044-6.514c0-.181-.01-.361-.024-.538 0-.043-.006-.087-.01-.13a6.51 6.51 0 00-1.84-3.91l-.04-.042c-.095-.1-.194-.186-.295-.275a6.51 6.51 0 00-4.326-1.638 6.594 6.594 0 00-1.139.1v-.1a7.387 7.387 0 00-7.386-7.387 7.355 7.355 0 00-4.841 1.811 10.216 10.216 0 00-.385-2.357c-.015-.053-.029-.106-.045-.158-.027-.09-.057-.178-.087-.267-.02-.059-.039-.119-.06-.178a3.96 3.96 0 00-.1-.255l-.071-.18c-.034-.083-.069-.165-.1-.247a10.526 10.526 0 00-.195-.419c-.029-.059-.059-.116-.089-.174-.041-.079-.081-.157-.124-.235a2.197 2.197 0 00-.1-.165q-.237-.412-.511-.8c-.04-.057-.08-.115-.122-.171l-.148-.194c-.048-.064-.089-.115-.135-.171s-.1-.124-.154-.185-.1-.112-.145-.168-.105-.117-.159-.175-.1-.111-.157-.165-.107-.11-.162-.164-.115-.11-.173-.165l-.161-.15c-.054-.05-.137-.12-.206-.179-.047-.04-.093-.082-.141-.121q-.172-.141-.349-.275c-.049-.037-.1-.072-.15-.108a11.737 11.737 0 00-.227-.162l-.169-.112c-.073-.048-.146-.1-.221-.141a10.478 10.478 0 00-.178-.107q-.112-.067-.227-.13l-.18-.1q-.119-.063-.24-.123c-.059-.029-.117-.059-.176-.087a12.705 12.705 0 00-.788-.333l-.075-.029c-.146-.053-.294-.1-.444-.15l-.147-.043a6.684 6.684 0 00-.311-.088c-.059-.016-.119-.029-.179-.044-.1-.023-.191-.046-.288-.066l-.191-.038q-.143-.027-.286-.051l-.194-.03c-.1-.014-.2-.026-.3-.038l-.188-.021c-.109-.011-.219-.018-.329-.025-.054 0-.107-.008-.162-.011a10.212 10.212 0 00-.5-.012z"/></g></svg>